#N canvas -8 -8 1534 870 10;
#X text 268 245 output left and right channels;
#X text 419 -84 overall gain;
#X obj 95 62 osc~ 440;
#X text 155 62 "osc~ 440";
#X text 415 -100 "slider";
#X obj 195 181 *~;
#X text 222 180 "*~";
#X obj 184 245 dac~;
#X text 218 245 "dac~";
#X text 433 88 "/ 127";
#X obj 393 89 / 127;
#X obj 419 141 nbx 5 14 -1e+37 1e+37 0 0 empty empty empty 0 -8 0 10
#fcfcfc #000000 #000000 0.0393701 256 0 0 1 0;
#X text 477 140 "nbx";
#X obj 13 -88 *~ 20;
#X obj 13 -38 +~ 440;
#X obj 46 -58 nbx 5 14 -1e+37 1e+37 0 0 empty empty empty 0 -8 0 10
#fcfcfc #000000 #000000 -38 256 0 0 1 0;
#X text 103 -59 center frequency;
#X obj 40 -109 nbx 5 14 -1e+37 1e+37 0 0 empty empty empty 0 -8 0 10
#fcfcfc #000000 #000000 15 256 0 0 1 0;
#X obj 46 -188 nbx 5 14 -1e+37 1e+37 0 0 empty empty empty 0 -8 0 10
#fcfcfc #000000 #000000 -3 256 0 0 1 0;
#X text 103 -174 freq mod rate;
#X text 97 -109 freq mod amp;
#X obj 13 -140 osc~ 5;
#X obj 380 -100 vsl 16 128 0 127 0 0 empty empty empty 0 -9 0 10 #fcfcfc
#000000 #000000 500 1 0 1;
#X connect 2 0 5 0;
#X connect 5 0 7 0;
#X connect 5 0 7 1;
#X connect 10 0 5 1;
#X connect 10 0 11 0;
#X connect 13 0 14 0;
#X connect 14 0 2 0;
#X connect 15 0 14 1;
#X connect 17 0 13 1;
#X connect 18 0 21 0;
#X connect 21 0 13 0;
#X connect 22 0 10 0;
